TITLE ""
FILE "2Q_t_1287-1300.mp3" MP3
  TRACK 01 AUDIO
    TITLE "2Q_t_1287-1300_01"
    INDEX 01 00:00:00
  TRACK 02 AUDIO
    TITLE "2Q_t_1287-1300_02"
    INDEX 01 00:00:08
  TRACK 03 AUDIO
    TITLE "2Q_t_1287-1300_03"
    INDEX 01 00:01:18
  TRACK 04 AUDIO
    TITLE "2Q_t_1287-1300_04"
    INDEX 01 00:01:65
  TRACK 05 AUDIO
    TITLE "2Q_t_1287-1300_05"
    INDEX 01 00:03:09
  TRACK 06 AUDIO
    TITLE "2Q_t_1287-1300_06"
    INDEX 01 00:03:54
  TRACK 07 AUDIO
    TITLE "2Q_t_1287-1300_07"
    INDEX 01 00:04:63
  TRACK 08 AUDIO
    TITLE "2Q_t_1287-1300_08"
    INDEX 01 00:05:45
  TRACK 09 AUDIO
    TITLE "2Q_t_1287-1300_09"
    INDEX 01 00:07:63
  TRACK 10 AUDIO
    TITLE "2Q_t_1287-1300_10"
    INDEX 01 00:08:33
  TRACK 11 AUDIO
    TITLE "2Q_t_1287-1300_11"
    INDEX 01 00:09:54
  TRACK 12 AUDIO
    TITLE "2Q_t_1287-1300_12"
    INDEX 01 00:10:28
  TRACK 13 AUDIO
    TITLE "2Q_t_1287-1300_13"
    INDEX 01 00:13:46
  TRACK 14 AUDIO
    TITLE "2Q_t_1287-1300_14"
    INDEX 01 00:14:18
  TRACK 15 AUDIO
    TITLE "2Q_t_1287-1300_15"
    INDEX 01 00:15:45
  TRACK 16 AUDIO
    TITLE "2Q_t_1287-1300_16"
    INDEX 01 00:16:19
  TRACK 17 AUDIO
    TITLE "2Q_t_1287-1300_17"
    INDEX 01 00:18:28
  TRACK 18 AUDIO
    TITLE "2Q_t_1287-1300_18"
    INDEX 01 00:18:73
  TRACK 19 AUDIO
    TITLE "2Q_t_1287-1300_19"
    INDEX 01 00:20:21
  TRACK 20 AUDIO
    TITLE "2Q_t_1287-1300_20"
    INDEX 01 00:21:03
  TRACK 21 AUDIO
    TITLE "2Q_t_1287-1300_21"
    INDEX 01 00:23:49
  TRACK 22 AUDIO
    TITLE "2Q_t_1287-1300_22"
    INDEX 01 00:24:19
  TRACK 23 AUDIO
    TITLE "2Q_t_1287-1300_23"
    INDEX 01 00:25:26
  TRACK 24 AUDIO
    TITLE "2Q_t_1287-1300_24"
    INDEX 01 00:26:02
  TRACK 25 AUDIO
    TITLE "2Q_t_1287-1300_25"
    INDEX 01 00:28:36
  TRACK 26 AUDIO
    TITLE "2Q_t_1287-1300_26"
    INDEX 01 00:29:06
  TRACK 27 AUDIO
    TITLE "2Q_t_1287-1300_27"
    INDEX 01 00:30:04
  TRACK 28 AUDIO
    TITLE "2Q_t_1287-1300_28"
    INDEX 01 00:30:60
  TRACK 29 AUDIO
    TITLE "2Q_t_1287-1300_29"
    INDEX 01 00:33:16
  TRACK 30 AUDIO
    TITLE "2Q_t_1287-1300_30"
    INDEX 01 00:33:61
  TRACK 31 AUDIO
    TITLE "2Q_t_1287-1300_31"
    INDEX 01 00:34:66
  TRACK 32 AUDIO
    TITLE "2Q_t_1287-1300_32"
    INDEX 01 00:35:40
  TRACK 33 AUDIO
    TITLE "2Q_t_1287-1300_33"
    INDEX 01 00:37:33
  TRACK 34 AUDIO
    TITLE "2Q_t_1287-1300_34"
    INDEX 01 00:38:05
  TRACK 35 AUDIO
    TITLE "2Q_t_1287-1300_35"
    INDEX 01 00:39:08
  TRACK 36 AUDIO
    TITLE "2Q_t_1287-1300_36"
    INDEX 01 00:39:53
  TRACK 37 AUDIO
    TITLE "2Q_t_1287-1300_37"
    INDEX 01 00:40:73
  TRACK 38 AUDIO
    TITLE "2Q_t_1287-1300_38"
    INDEX 01 00:41:41
  TRACK 39 AUDIO
    TITLE "2Q_t_1287-1300_39"
    INDEX 01 00:43:59
  TRACK 40 AUDIO
    TITLE "2Q_t_1287-1300_40"
    INDEX 01 00:44:31
  TRACK 41 AUDIO
    TITLE "2Q_t_1287-1300_41"
    INDEX 01 00:45:58
  TRACK 42 AUDIO
    TITLE "2Q_t_1287-1300_42"
    INDEX 01 00:46:32
  TRACK 43 AUDIO
    TITLE "2Q_t_1287-1300_43"
    INDEX 01 00:50:34
  TRACK 44 AUDIO
    TITLE "2Q_t_1287-1300_44"
    INDEX 01 00:51:04
  TRACK 45 AUDIO
    TITLE "2Q_t_1287-1300_45"
    INDEX 01 00:52:13
  TRACK 46 AUDIO
    TITLE "2Q_t_1287-1300_46"
    INDEX 01 00:52:66
  TRACK 47 AUDIO
    TITLE "2Q_t_1287-1300_47"
    INDEX 01 00:56:42
  TRACK 48 AUDIO
    TITLE "2Q_t_1287-1300_48"
    INDEX 01 00:57:16
  TRACK 49 AUDIO
    TITLE "2Q_t_1287-1300_49"
    INDEX 01 00:58:23
  TRACK 50 AUDIO
    TITLE "2Q_t_1287-1300_50"
    INDEX 01 00:58:72
  TRACK 51 AUDIO
    TITLE "2Q_t_1287-1300_51"
    INDEX 01 01:01:53
  TRACK 52 AUDIO
    TITLE "2Q_t_1287-1300_52"
    INDEX 01 01:02:23
  TRACK 53 AUDIO
    TITLE "2Q_t_1287-1300_53"
    INDEX 01 01:03:46
  TRACK 54 AUDIO
    TITLE "2Q_t_1287-1300_54"
    INDEX 01 01:04:16
  TRACK 55 AUDIO
    TITLE "2Q_t_1287-1300_55"
    INDEX 01 01:05:29
  TRACK 56 AUDIO
    TITLE "2Q_t_1287-1300_56"
    INDEX 01 01:06:01
  TRACK 57 AUDIO
    TITLE "2Q_t_1287-1300_57"
    INDEX 01 01:09:33
  TRACK 58 AUDIO
    TITLE "2Q_t_1287-1300_58"
    INDEX 01 01:10:03
  TRACK 59 AUDIO
    TITLE "2Q_t_1287-1300_59"
    INDEX 01 01:11:18
  TRACK 60 AUDIO
    TITLE "2Q_t_1287-1300_60"
    INDEX 01 01:11:63
  TRACK 61 AUDIO
    TITLE "2Q_t_1287-1300_61"
    INDEX 01 01:13:07
  TRACK 62 AUDIO
    TITLE "2Q_t_1287-1300_62"
    INDEX 01 01:13:54
  TRACK 63 AUDIO
    TITLE "2Q_t_1287-1300_63"
    INDEX 01 01:15:26
